# xmcd
#
# Track frame offsets:
#	150
#	25110
#	41000
#	58697
#	77340
#	96237
#	113230
#	127260
#	145445
#	161525
#	177705
#	198130
#	217192
#	236187
#	250857
#	270707
#	290840
#
# Disc length: 4113 seconds
#
# Revision: 1
# Processed by: cddbd v1.4b42PL0 Copyright (c) Steve Scherf et al.
# Submitted via: audiograbber 1.80
#
DISCID=09100f11
DTITLE=Faith Hill - Breathe
DYEAR=1900
DGENRE=
TTITLE0=What's In It For Me
TTITLE1=I Got My Baby
TTITLE2=Love Is A Sweet Thing
TTITLE3=Breathe
TTITLE4=Let's Make Love(with Tim McGraw)
TTITLE5=It Will Be Me
TTITLE6=The Way You Love Me
TTITLE7=If I'm Not In Love
TTITLE8=Bringing Out The Elvis
TTITLE9=If My Heart Had Wings
TTITLE10=If I Should Fall Behind
TTITLE11=That's How Love Moves
TTITLE12=There Will Come A Day
TTITLE13=This Kiss(radio version)
TTITLE14=Let Me Let Go
TTITLE15=Just To Hear You Say That You Love Me(with Tim McGraw)
TTITLE16=Breathe(Hex Hector radio edit #1)
EXTD=
EXTT0=
EXTT1=
EXTT2=
EXTT3=
EXTT4=
EXTT5=
EXTT6=
EXTT7=
EXTT8=
EXTT9=
EXTT10=
EXTT11=
EXTT12=
EXTT13=
EXTT14=
EXTT15=
EXTT16=
PLAYORDER=
